<?xml version="1.0" encoding="UTF-8" standalone="no"?>
<!-- Generator: Adobe Illustrator 20.0.0, SVG Export Plug-In . SVG Version: 6.00 Build 0)  -->

<svg
   xmlns:dc="http://purl.org/dc/elements/1.1/"
   xmlns:cc="http://creativecommons.org/ns#"
   xmlns:rdf="http://www.w3.org/1999/02/22-rdf-syntax-ns#"
   xmlns:svg="http://www.w3.org/2000/svg"
   xmlns="http://www.w3.org/2000/svg"
   xmlns:sodipodi="http://sodipodi.sourceforge.net/DTD/sodipodi-0.dtd"
   xmlns:inkscape="http://www.inkscape.org/namespaces/inkscape"
   version="1.1"
   id="Layer_1"
   x="0px"
   y="0px"
   width="1563.97"
   height="800.13599"
   viewBox="0 0 1563.97 800.13597"
   xml:space="preserve"
   sodipodi:docname="carecredit.svg"
   inkscape:version="0.92.4 (5da689c313, 2019-01-14)"><metadata
   id="metadata51"><rdf:RDF><cc:Work
       rdf:about=""><dc:format>image/svg+xml</dc:format><dc:type
         rdf:resource="http://purl.org/dc/dcmitype/StillImage" /><dc:title></dc:title></cc:Work></rdf:RDF></metadata><defs
   id="defs49" /><sodipodi:namedview
   pagecolor="#ffffff"
   bordercolor="#666666"
   borderopacity="1"
   objecttolerance="10"
   gridtolerance="10"
   guidetolerance="10"
   inkscape:pageopacity="0"
   inkscape:pageshadow="2"
   inkscape:window-width="1326"
   inkscape:window-height="757"
   id="namedview47"
   showgrid="false"
   inkscape:zoom="0.2595186"
   inkscape:cx="766.42789"
   inkscape:cy="242.3152"
   inkscape:window-x="498"
   inkscape:window-y="123"
   inkscape:window-maximized="0"
   inkscape:current-layer="g44" />
<style
   type="text/css"
   id="style2">
	.st0{fill:#83BC2C;}
	.st1{fill:#016B5D;}
	.st2{fill:#35A097;}
</style>
<g
   id="g44"
   transform="translate(0,596.99995)">
	<path
   class="st0"
   d="m 149.52,-284.58163 c 1.14,-2.15 2.94,-4.54 5.66,-4.41 4.28,0.48 7.21,4.17 9.52,7.47 6.25,9.58 9.1,21.23 8.7,32.61 -0.45,14.15 -8.64,27.01 -19.29,35.87 -29.3,25.32 -63.45,44.32 -98.47,60.5 -2.1,1.09 -4.4,1.77 -6.79,1.54 0.65,-1.04 1.28,-2.09 2.09,-3.02 28.39,-27.52 51.81,-59.58 74.33,-91.94 8.55,-12.57 16.99,-25.25 24.25,-38.62 z"
   id="path4"
   style="fill:#ffffff;fill-opacity:1"
   inkscape:connector-curvature="0" />
	<path
   class="st1"
   d="m 323.06,-253.11163 c 17.54,-15.25 40.99,-23.02 64.11,-22.61 17.99,-0.17 36.37,3.47 51.97,12.73 7.31,4.26 13.82,9.72 19.95,15.52 -8.56,10.01 -17.21,19.94 -25.87,29.87 -11.5,-10.35 -25.37,-19.19 -41.16,-20.46 -16.53,-1.9 -33.83,4.61 -44.61,17.36 -20.98,23.96 -18.61,64.92 5.94,85.55 14.54,12.58 35.94,14.66 53.68,8.38 10.49,-3.72 19.29,-10.8 27.48,-18.14 8.46,8.84 17.23,17.37 25.83,26.06 -13.02,14.58 -30.03,26.17 -49.36,30.27 -19.59,4.14 -40.5,3.88 -59.44,-3.04 -21.89,-7.72 -40.44,-24.29 -50.69,-45.09 -9.39,-18.5 -11.93,-40.01 -8.79,-60.39 3.39,-21.51 14.36,-41.85 30.96,-56.01 z"
   id="path6"
   style="fill:#ffffff;fill-opacity:1"
   inkscape:connector-curvature="0" />
	<path
   class="st1"
   d="m 1518.72,-273.37163 c 3.34,-1.63 7.17,-1.27 10.75,-0.85 -0.11,1.74 -0.22,3.47 -0.32,5.21 -2.68,-0.17 -6.08,-1.45 -8.08,1.02 0.01,3.3 4.11,3.47 6.27,4.93 4.66,1.89 4.97,8.66 1.51,11.82 -3.43,3.69 -8.94,2.85 -13.43,2.51 0.1,-1.87 0.2,-3.74 0.3,-5.61 2.4,0.34 4.9,1.06 7.35,0.5 1.5,-0.7 2.25,-2.57 0.88,-3.83 -2.47,-1.65 -5.65,-2.12 -7.73,-4.31 -2.99,-3.44 -1.59,-9.46 2.5,-11.39 z"
   id="path8"
   style="fill:#ffffff;fill-opacity:1"
   inkscape:connector-curvature="0" />
	<path
   class="st1"
   d="m 1536.54,-274.20163 c 2.27,0 4.55,0 6.85,-0.01 1.69,5.21 3.42,10.4 4.81,15.7 1.43,-5.28 3.23,-10.46 4.88,-15.67 2.24,-0.01 4.51,-0.02 6.79,-0.01 1.38,8.49 2.71,16.99 4.1,25.49 -2.17,0 -4.32,-0.01 -6.45,-0.03 -0.72,-5.11 -1.58,-10.19 -2.22,-15.31 -1.34,5.16 -2.95,10.23 -4.48,15.33 -1.94,0 -3.86,0.01 -5.77,0.01 -1.6,-5.09 -3.4,-10.14 -4.52,-15.37 -0.59,5.13 -1.25,10.24 -1.95,15.36 -2.04,0.01 -4.06,0.02 -6.07,0.03 1.27,-8.52 2.7,-17.01 4.03,-25.52 z"
   id="path10"
   style="fill:#ffffff;fill-opacity:1"
   inkscape:connector-curvature="0" />
	<path
   class="st1"
   d="m 903.77,-259.22163 c 14.61,-8.24 31.69,-11.55 48.37,-10.51 13.36,0.5 26.69,3.81 38.44,10.27 9.92,5.27 18.68,12.47 26.72,20.26 -4.84,4.57 -9.22,9.58 -14,14.21 -9.53,-9.31 -20.13,-18.11 -32.95,-22.38 -18.1,-6.33 -38.95,-5.56 -55.93,3.68 -12.74,6.79 -22.97,17.96 -29.01,31.04 -6.82,14.75 -8.55,31.57 -6.11,47.55 3.04,19.41 13.82,37.89 30.44,48.68 18.14,12.29 42.23,13.96 62.53,6.39 12.46,-5.13 23.16,-13.81 32.33,-23.55 4.52,4.52 9.17,8.91 13.7,13.41 -9.85,9.46 -20.3,18.68 -32.8,24.48 -15.67,7.55 -33.51,9.81 -50.7,7.97 -20.37,-2.21 -39.79,-12.14 -53.59,-27.25 -23.44,-25.58 -29.56,-64.58 -17.62,-96.79 7.26,-19.87 21.52,-37.3 40.18,-47.46 z"
   id="path12"
   style="fill:#ffffff;fill-opacity:1"
   inkscape:connector-curvature="0" />
	<path
   class="st1"
   d="m 1398.91,-269.43163 c 7.24,-0.05 14.49,-0.02 21.75,-0.02 0.01,7.74 -0.02,15.48 0.02,23.22 -7.26,0.07 -14.51,0.01 -21.76,0.04 -0.03,-7.74 0,-15.49 -0.01,-23.24 z"
   id="path14"
   style="fill:#ffffff;fill-opacity:1"
   inkscape:connector-curvature="0" />
	<path
   class="st1"
   d="m 1457.91,-260.44163 c 6.33,-0.01 12.67,-0.02 19.01,0.01 -0.02,13.16 0,26.32 0,39.48 14.49,0 28.99,0 43.48,0 0,6 0,12 0,18 -14.49,0 -28.99,0 -43.48,0 -0.01,25.67 0,51.34 -0.01,77 0.12,5.25 1,11.27 5.3,14.83 5.58,4.49 13.21,5.41 20.14,4.64 6.21,-0.59 11.91,-3.33 17.57,-5.78 -0.02,6.29 0.02,12.58 -0.03,18.88 -11.59,5.78 -25.3,7.15 -37.76,3.62 -8.32,-2.25 -15.62,-7.99 -19.61,-15.65 -3.67,-6.54 -4.59,-14.15 -4.61,-21.52 0.01,-25.34 -0.02,-50.68 0.01,-76.01 -5.93,-0.02 -11.85,-0.01 -17.76,-0.01 0,-6 0,-12 0,-18 5.92,0 11.84,0.01 17.76,-0.01 -0.03,-13.16 -0.01,-26.32 -0.01,-39.48 z"
   id="path16"
   style="fill:#ffffff;fill-opacity:1"
   inkscape:connector-curvature="0" />
	<path
   class="st2"
   d="m 198.14,-226.96163 c 4.18,-2.85 8.44,-7.22 14.01,-5.91 5.1,1.99 6.67,7.99 7.68,12.83 1.79,13.29 0.05,27.38 -6.43,39.25 -2.79,5.32 -7.56,9.17 -12.27,12.72 -9.54,7.11 -20.98,10.87 -32.09,14.74 -39.04,13.09 -79.93,19.85 -120.86,23.32 -6.98,0.3 -13.95,1.52 -20.94,0.84 0,-0.61 0.01,-1.84 0.02,-2.45 35.18,-11.79 69.21,-27.17 100.96,-46.41 24,-15.29 46.66,-32.56 69.92,-48.93 z"
   id="path18"
   style="fill:#ffffff;fill-opacity:1"
   inkscape:connector-curvature="0" />
	<path
   class="st1"
   d="m 671.95,-227.33163 c 7.23,-4.12 15.75,-5.32 23.97,-5.04 -0.01,13.96 0,27.91 0,41.87 -9.27,-0.02 -18.92,1.42 -26.77,6.67 -7.84,5.05 -12.93,13.48 -15.36,22.34 -2.99,10.23 -2.65,21 -2.63,31.54 0,13.67 0,27.33 0,41 -13.33,0 -26.67,0 -40,0 0,-46.92 -0.01,-93.84 0.01,-140.76 13.32,0.01 26.65,0.01 39.99,0 0.06,9.26 -0.14,18.52 0.12,27.78 4.13,-10.23 10.83,-19.97 20.67,-25.4 z"
   id="path20"
   style="fill:#ffffff;fill-opacity:1"
   inkscape:connector-curvature="0" />
	<path
   class="st1"
   d="m 1084.09,-219.81163 c 7.62,-2.75 15.8,-3.16 23.83,-2.89 0,6.65 -0.05,13.29 0.03,19.94 -11.95,-0.46 -24.39,2.16 -33.95,9.66 -14.12,10.73 -20.75,28.84 -21.03,46.16 -0.12,18.99 -0.03,37.99 -0.04,56.98 -6.26,0.02 -12.52,0 -18.77,0.01 0,-43.67 0,-87.33 0,-131 6.25,0 12.5,0 18.76,0 0.01,8.38 -0.05,16.76 0.03,25.13 7.7,-10.83 18.35,-19.88 31.14,-23.99 z"
   id="path22"
   style="fill:#ffffff;fill-opacity:1"
   inkscape:connector-curvature="0" />
	<path
   class="st1"
   d="m 1400.4,-220.94163 c 6.25,-0.02 12.5,-0.01 18.76,-0.01 0,43.67 0,87.33 0,131 -6.26,0 -12.51,0 -18.76,0 0.01,-43.67 0.01,-87.33 0,-130.99 z"
   id="path24"
   style="fill:#ffffff;fill-opacity:1"
   inkscape:connector-curvature="0" />
	<g
   id="g28"
   style="fill:#ffffff;fill-opacity:1"
   transform="translate(0,-288.99663)">
		<path
   class="st1"
   d="m 1229.19,141.805 c 1.45,-8.03 0.57,-16.27 -0.7,-24.26 -3.2,-18.22 -13.57,-35.77 -29.95,-44.99 -12.85,-7.4 -28.54,-8.95 -42.87,-5.75 -18.82,4.5 -34.52,18.8 -42.13,36.41 -5.89,13.09 -7.29,27.84 -5.46,41.98 2.09,15.44 9.52,30.26 21.19,40.66 11.63,10.44 27.27,16.32 42.9,15.97 11.57,0.09 23.46,-2.21 33.39,-8.38 8.53,-4.92 15.85,-11.61 22.53,-18.8 -4.52,-4.05 -9.07,-8.07 -13.66,-12.03 -8.88,10.02 -20.53,18.81 -34.2,20.33 -11.34,1.71 -23.49,-0.42 -32.98,-7.04 -11.19,-7.76 -18.4,-20.62 -20.01,-34.07 33.98,-0.08 67.96,-0.03 101.95,-0.03 z m -101.92,-17.54 c 2.22,-14.41 9.91,-28.76 22.91,-36.08 8.67,-5.08 19.27,-6.11 28.98,-3.93 8.85,2.04 16.59,7.79 21.73,15.22 5.08,7.32 7.73,16.06 9.04,24.81 -27.55,-0.01 -55.11,0.03 -82.66,-0.02 z"
   id="path26"
   style="fill:#ffffff;fill-opacity:1"
   inkscape:connector-curvature="0" />
	</g>
	<g
   id="g32"
   style="fill:#ffffff;fill-opacity:1"
   transform="translate(0,-288.99663)">
		<path
   class="st1"
   d="m 1371.93,199.035 c -0.03,-61.41 -0.02,-122.82 -0.01,-184.23 -6.26,-0.01 -12.51,0 -18.76,0 0,24.38 -0.01,48.75 0.01,73.13 -9.5,-11.5 -22.97,-19.94 -37.87,-22.01 -17.45,-2.77 -35.83,2.56 -49.31,13.92 -15.31,12.63 -24.02,32.39 -24.08,52.14 -0.57,16.59 4.42,33.46 14.94,46.42 12.2,15.23 31.78,24.35 51.33,23.41 17.61,-0.33 34.19,-9.75 44.98,-23.42 0,6.88 0,13.76 0,20.65 6.25,-0.01 12.51,0.01 18.77,-0.01 z m -27.46,-35.52 c -8.81,12.5 -23.89,20.46 -39.26,19.96 -8.16,-0.38 -16.28,-2.82 -23.03,-7.49 -11.44,-7.47 -18.4,-20.55 -20.07,-33.93 -1.33,-11.73 -0.34,-24.08 5.12,-34.72 5.63,-11.56 16.79,-20.15 29.41,-22.63 16.75,-3.88 34.98,2.93 45.8,16.12 14.5,17.31 15.35,44.48 2.03,62.69 z"
   id="path30"
   style="fill:#ffffff;fill-opacity:1"
   inkscape:connector-curvature="0" />
	</g>
	<g
   id="g36"
   style="fill:#ffffff;fill-opacity:1"
   transform="translate(0,-288.99663)">
		<path
   class="st1"
   d="m 836.08,143.575 c 1.32,-11.82 0.44,-23.87 -2.39,-35.41 -3.6,-14.25 -10.97,-27.89 -22.46,-37.28 -11.66,-9.73 -27.06,-14.26 -42.11,-14.11 -15.42,-0.46 -31,4.51 -43.11,14.1 -14.02,10.85 -23.18,27.37 -26.14,44.76 -2.75,16.27 -1.07,33.53 6.12,48.5 6.03,12.56 16.09,23.11 28.34,29.76 17.18,9.39 37.87,11.31 56.84,7.14 15.19,-3.28 28.96,-12.13 38.57,-24.29 -7.7,-6.72 -15.34,-13.51 -22.97,-20.3 -7.01,6.28 -15.1,11.95 -24.57,13.58 -10.34,1.8 -21.87,1.05 -30.66,-5.23 -7.04,-4.95 -11.26,-12.99 -13.12,-21.24 32.55,-0.01 65.11,-0.04 97.66,0.02 z m -98.11,-25.01 c 1.45,-8.36 4.86,-16.7 11.19,-22.55 8.48,-7.82 21.92,-9.27 32.11,-4.08 9.92,5.01 14.99,16.04 16.41,26.61 -19.91,0.01 -39.81,-0.01 -59.71,0.02 z"
   id="path34"
   style="fill:#ffffff;fill-opacity:1"
   inkscape:connector-curvature="0" />
	</g>
	<path
   class="st1"
   d="m 237.21,-159.94163 c 3.87,-1.33 9.14,-1.48 11.6,2.42 2.75,4.67 1.95,10.44 0.81,15.48 -3.24,13.01 -10.93,24.77 -21.16,33.38 -5.97,5 -13.26,8.05 -20.61,10.42 -13.49,4.2 -27.66,5.58 -41.71,6.39 -25.35,1.39 -50.82,0.65 -76.04,-2.32 -27,-3.3 -54.04,-8.77 -79.14,-19.57 -3.8,-1.82 -8.02,-3.14 -10.96,-6.32 1.61,-0.82 3.36,-1.35 5.18,-1.11 12.66,0.64 25.36,0.97 38.03,0.47 31.16,-0.65 62.36,-3.68 92.82,-10.41 34.25,-7.57 68.25,-16.65 101.18,-28.83 z"
   id="path38"
   style="fill:#ffffff;fill-opacity:1"
   inkscape:connector-curvature="0" />
	<g
   id="g42"
   style="fill:#ffffff;fill-opacity:1"
   transform="translate(0,-288.99663)">
		<path
   class="st1"
   d="m 584.55,78.565 c -8.86,-12.28 -23.88,-18.41 -38.53,-20.05 -23.04,-2.43 -46.88,0.67 -67.97,10.53 3.35,10.21 6.65,20.44 10.03,30.64 10.31,-3.81 21.03,-6.84 32.06,-7.42 9.8,-0.68 20.71,-0.27 28.78,6.04 6.39,5.05 8.39,13.65 8.04,21.45 -16.51,-5.83 -34.52,-7.17 -51.76,-4.22 -11.43,2.1 -22.97,6.92 -30.42,16.19 -8.24,9.95 -9.88,23.72 -8.04,36.13 1.68,10.43 7.72,20.11 16.55,25.95 12.68,8.66 28.98,10.24 43.81,7.67 11.33,-1.96 21.71,-7.92 29.58,-16.24 -0.04,4.92 -0.01,9.85 -0.04,14.78 12.92,0.06 25.85,0.01 38.77,0.03 0,-27.34 -0.01,-54.67 0.01,-82.01 -0.01,-13.75 -2.58,-28.16 -10.87,-39.47 z m -28.46,79.58 c -2.44,6.63 -8.22,11.58 -14.72,14.03 -7.07,2.66 -14.91,3.41 -22.31,1.86 -5.85,-1.26 -11.65,-5.03 -13.47,-10.99 -1.53,-5.55 -0.87,-12.06 2.93,-16.59 3.86,-4.73 9.96,-6.82 15.8,-7.74 11.17,-1.56 22.68,0.2 33.07,4.53 -0.07,4.97 0.57,10.16 -1.3,14.9 z"
   id="path40"
   style="fill:#ffffff;fill-opacity:1"
   inkscape:connector-curvature="0" />
	</g>
</g>
</svg>